# xmcd
#
# Track frame offsets:
#	150
#	11325
#	23512
#	36562
#	47287
#	59100
#	68812
#	78600
#	93075
#	106200
#	118237
#	130500
#	141862
#	154800
#	167475
#
# Disc length: 2379 seconds
# Revision: 3
# Processed by: cddbd v1.5.2PL0 Copyright (c) Steve Scherf et al.
# Submitted via: dBpowerAMP V12.0
#
DISCID=bd09490f
DTITLE=Bill and Charlie Monroe - The Monroe Brothers, Vol. 2: Just a Song of Old Kentucky
DYEAR=2001
DGENRE=Bluegrass
TTITLE0=Roll in My Sweet Baby's Arms
TTITLE1=Don't Forget Me
TTITLE2=My Savior's Train
TTITLE3=Just a Song of Old Kentucky
TTITLE4=The Old Cross Road
TTITLE5=I'm Going (Through)
TTITLE6=Darling Corey
TTITLE7=Six Months Ain't Long
TTITLE8=The Saints Go Marching In
TTITLE9=We Read of a Place That's Called Heaven
TTITLE10=The Forgotten Soldier Boy
TTITLE11=I Am Thinking Tonight of the Old Folks
TTITLE12=(I) Dreamed I Searched Heaven for You
TTITLE13=Where Is My Sailor Boy?
TTITLE14=Will the Circle Be Unbroken
EXTD=
EXTT0=
EXTT1=
EXTT2=
EXTT3=
EXTT4=
EXTT5=
EXTT6=
EXTT7=
EXTT8=
EXTT9=
EXTT10=
EXTT11=
EXTT12=
EXTT13=
EXTT14=
PLAYORDER=
